<svg role="img" viewBox="0 0 24 24" xmlns="http://www.w3.org/2000/svg" id="Grubhub--Streamline-Simple-Icons" height="24" width="24">
  <desc>
    Grubhub Streamline Icon: https://streamlinehq.com
  </desc>
  <title>Grubhub</title>
  <path d="M16.708 9.556h-0.84c-0.048 0 -0.072 0.048 -0.072 0.072v1.828h-0.84V9.628c0 -0.048 -0.048 -0.072 -0.072 -0.072h-0.84c-0.048 0 -0.072 0.048 -0.072 0.072v4.692c0 0.048 0.048 0.072 0.072 0.072h0.84c0.048 0 0.072 -0.048 0.072 -0.072v-1.876h0.84v1.876c0 0.048 0.048 0.072 0.072 0.072h0.84c0.048 0 0.072 -0.048 0.072 -0.072V9.628c0 -0.024 -0.024 -0.072 -0.072 -0.072m-7.08 0h-0.84c-0.048 0 -0.072 0.024 -0.072 0.072v3.324a0.61 0.61 0 0 1 -0.12 0.384c-0.072 0.096 -0.168 0.12 -0.288 0.12a0.405 0.405 0 0 1 -0.288 -0.12 0.61 0.61 0 0 1 -0.12 -0.384V9.628c0 -0.048 -0.048 -0.072 -0.072 -0.072h-0.84c-0.048 0 -0.072 0.024 -0.072 0.072v3.348c0 0.432 0.096 0.84 0.36 1.108 0.264 0.264 0.624 0.408 1.036 0.408 0.432 0 0.796 -0.144 1.036 -0.408 0.264 -0.264 0.36 -0.648 0.36 -1.108V9.628c-0.004 -0.024 -0.028 -0.072 -0.08 -0.072m-8.232 -0.072c-0.432 0 -0.796 0.144 -1.036 0.408C0.096 10.156 0 10.54 0 11v2c0 0.432 0.096 0.84 0.36 1.108 0.264 0.264 0.624 0.408 1.036 0.408 0.432 0 0.796 -0.144 1.036 -0.408 0.264 -0.264 0.36 -0.648 0.36 -1.108v-1.104a0.102 0.102 0 0 0 -0.096 -0.096H1.468a0.102 0.102 0 0 0 -0.096 0.096v0.82c0 0.048 0.048 0.096 0.096 0.096h0.316v0.192a0.676 0.676 0 0 1 -0.12 0.408c-0.072 0.096 -0.168 0.12 -0.288 0.12a0.405 0.405 0 0 1 -0.288 -0.12 0.69 0.69 0 0 1 -0.12 -0.408v-1.976c0 -0.168 0.048 -0.316 0.12 -0.408 0.072 -0.096 0.168 -0.12 0.288 -0.12 0.116 0 0.216 0.048 0.288 0.12 0.072 0.096 0.12 0.24 0.12 0.408v0.192c0 0.048 0.048 0.072 0.072 0.072h0.84c0.048 0 0.072 -0.024 0.072 -0.072v-0.192c0 -0.432 -0.096 -0.84 -0.36 -1.108 -0.216 -0.292 -0.604 -0.436 -1.012 -0.436m10.832 3.828c-0.072 0.096 -0.168 0.12 -0.316 0.12h-0.48v-1.016h0.48c0.12 0 0.216 0.048 0.288 0.12 0.079 0.104 0.121 0.23 0.12 0.36 0.008 0.2 -0.016 0.316 -0.092 0.416zm-0.364 -2.768c0.12 0 0.216 0.024 0.288 0.12 0.072 0.072 0.096 0.192 0.096 0.34s-0.024 0.264 -0.096 0.36a0.385 0.385 0 0 1 -0.264 0.12h-0.432v-0.94h0.408zm0.964 1.372c0.144 -0.144 0.408 -0.48 0.408 -0.916 0 -0.508 -0.192 -0.82 -0.34 -0.988 -0.264 -0.288 -0.624 -0.432 -1.036 -0.432h-1.316c-0.048 0 -0.072 0.048 -0.072 0.072v4.696c0 0.048 0.048 0.072 0.072 0.072h1.396c0.432 0 0.84 -0.168 1.108 -0.508 0.144 -0.192 0.316 -0.508 0.316 -0.988 -0.028 -0.576 -0.388 -0.916 -0.536 -1.008zm-7.652 -0.46c-0.072 0.096 -0.192 0.144 -0.34 0.144h-0.408v-1.056h0.408c0.144 0 0.264 0.048 0.34 0.144 0.096 0.096 0.12 0.216 0.12 0.384s-0.02 0.288 -0.12 0.384zm0.532 0.868c0.096 -0.072 0.168 -0.12 0.24 -0.216 0.168 -0.192 0.384 -0.532 0.384 -1.06 0 -0.508 -0.192 -0.84 -0.384 -1.036 -0.24 -0.288 -0.6 -0.432 -1.012 -0.456H3.54c-0.048 0 -0.072 0.048 -0.072 0.072v4.692c0 0.048 0.048 0.072 0.072 0.072h0.84c0.048 0 0.072 -0.048 0.072 -0.072v-1.736h0.288l0.532 1.78c0 0.024 0.048 0.048 0.072 0.048h0.888c0.024 0 0.048 -0.024 0.072 -0.024s0.024 -0.048 0.024 -0.072l-0.62 -1.992zm17.136 0.988c-0.072 0.096 -0.168 0.12 -0.316 0.12h-0.48v-1.016h0.48c0.12 0 0.216 0.048 0.288 0.12 0.079 0.104 0.121 0.23 0.12 0.36 0.028 0.2 -0.016 0.316 -0.092 0.416zm-0.34 -2.768c0.12 0 0.216 0.024 0.288 0.12 0.072 0.072 0.096 0.192 0.096 0.34s-0.024 0.264 -0.096 0.36a0.385 0.385 0 0 1 -0.264 0.12h-0.432v-0.94h0.408zm0.964 1.372c0.144 -0.144 0.408 -0.48 0.408 -0.916 0 -0.508 -0.192 -0.82 -0.34 -0.988 -0.264 -0.288 -0.624 -0.432 -1.036 -0.432h-1.328c-0.048 0 -0.072 0.048 -0.072 0.072v4.696c0 0.048 0.048 0.072 0.072 0.072h1.404c0.432 0 0.84 -0.168 1.108 -0.508 0.144 -0.192 0.316 -0.508 0.316 -0.988a1.442 1.442 0 0 0 -0.532 -1.008zm-3.224 -2.36h-0.84c-0.048 0 -0.072 0.024 -0.072 0.072v3.324a0.61 0.61 0 0 1 -0.12 0.384c-0.072 0.096 -0.168 0.12 -0.288 0.12a0.405 0.405 0 0 1 -0.288 -0.12 0.61 0.61 0 0 1 -0.12 -0.384V9.628c0 -0.048 -0.048 -0.072 -0.072 -0.072H17.6c-0.048 0 -0.072 0.024 -0.072 0.072v3.348c0 0.432 0.096 0.84 0.36 1.108 0.264 0.264 0.624 0.408 1.036 0.408 0.432 0 0.796 -0.144 1.036 -0.408 0.264 -0.264 0.36 -0.648 0.36 -1.108V9.628c0.024 -0.024 -0.024 -0.072 -0.076 -0.072" fill="#ff7d19" stroke-width="1"></path>
</svg>